<svg width="166" height="23" viewBox="0 0 166 23" fill="none" xmlns="http://www.w3.org/2000/svg">
<path d="M0.368 8.33667H3.22V17H5.842V8.33667H8.694V6.236H0.368V8.33667ZM19.9101 17H22.6855L18.7908 6.236H15.7548L11.8601 17H14.6048L15.2488 15.0987H19.2661L19.9101 17ZM18.5915 13.0747H15.9388L17.2575 9.134L18.5915 13.0747ZM29.309 13.4427V17H31.931V13.4427L35.657 6.236H32.713L30.643 10.744L28.5577 6.236H25.583L29.309 13.4427ZM39.269 6.236V17H45.3257V14.976H41.891V6.236H39.269ZM59.7272 11.5873C59.7272 8.352 57.2892 6.08267 54.2225 6.08267C51.1712 6.08267 48.6872 8.352 48.6872 11.5873C48.6872 14.8227 51.1712 17.1073 54.2225 17.1073C57.2739 17.1073 59.7272 14.8227 59.7272 11.5873ZM51.3705 11.5873C51.3705 9.67067 52.4745 8.45933 54.2225 8.45933C55.9399 8.45933 57.0592 9.67067 57.0592 11.5873C57.0592 13.4733 55.9399 14.7153 54.2225 14.7153C52.4745 14.7153 51.3705 13.4733 51.3705 11.5873ZM69.4301 9.732C69.4301 10.5753 68.9701 11.0813 67.9888 11.0813H66.3635V8.41333H67.9888C68.9701 8.41333 69.4301 8.93467 69.4301 9.732ZM63.7415 6.236V17H66.3635V12.9367H66.9921L69.2308 17H72.1901L69.7061 12.7373C71.3621 12.2467 72.0981 10.974 72.0981 9.62467C72.0981 7.754 70.7795 6.236 68.1421 6.236H63.7415ZM84.7265 11.0507V8.352H86.1525C87.1952 8.352 87.6399 8.87333 87.6399 9.70133C87.6399 10.5293 87.1952 11.0507 86.1525 11.0507H84.7265ZM90.3079 9.70133C90.3079 7.72333 88.9892 6.236 86.3519 6.236H82.1045V17H84.7265V13.136H86.3519C89.0965 13.136 90.3079 11.48 90.3079 9.70133ZM99.9171 9.732C99.9171 10.5753 99.4571 11.0813 98.4758 11.0813H96.8504V8.41333H98.4758C99.4571 8.41333 99.9171 8.93467 99.9171 9.732ZM94.2284 6.236V17H96.8504V12.9367H97.4791L99.7178 17H102.677L100.193 12.7373C101.849 12.2467 102.585 10.974 102.585 9.62467C102.585 7.754 101.266 6.236 98.6291 6.236H94.2284ZM106.787 17H109.409V6.236H106.787V17ZM113.864 17H116.486V10.5293L118.909 17H121.025L123.432 10.5447V17H126.054V6.236H122.972L119.982 13.688L116.962 6.236H113.864V17ZM130.449 12.6607C130.449 15.6353 132.397 17.1073 134.896 17.1073C137.38 17.1073 139.465 15.6353 139.465 12.6607V6.236H136.843V12.676C136.843 13.9487 136.184 14.6847 134.942 14.6847C133.7 14.6847 133.071 13.9487 133.071 12.676V6.236H130.449V12.6607ZM143.279 8.33667H146.131V17H148.753V8.33667H151.605V6.236H143.279V8.33667ZM162.178 17H164.8V6.236H162.178V10.4527H158.099V6.236H155.477V17H158.099V12.5687H162.178V17Z" fill="white"/>
</svg>
