<?xml version="1.0" encoding="UTF-8"?>
<svg viewBox="0 0 90.5 90.125" xmlns="http://www.w3.org/2000/svg">
<metadata>
<x:xmpmeta x:xmptk="Adobe XMP Core 5.6-c142 79.160924, 2017/07/13-01:06:39        " xmlns:x="adobe:ns:meta/">
<rdf:RDF xmlns:rdf="http://www.w3.org/1999/02/22-rdf-syntax-ns#">
<rdf:Description rdf:about=""/>
</rdf:RDF>
</x:xmpmeta>
</metadata>
<defs>
<style>.cls-1 {
        fill: #fff;
        fill-rule: evenodd;
      }</style>
</defs>
<path class="cls-1" transform="translate(-1105.7 -600.97)" d="m1140.8 609.66c2.27-0.649 3.65-2.032 3.75-3.765l-2.68 0.163a1.743 1.743 0 0 1 -1.51 1.744 1.835 1.835 0 0 1 -2.53 -1.242 1.854 1.854 0 0 1 1.48 -2.4 1.756 1.756 0 0 1 2.21 0.69l2.41-1.209c-0.92-1.454-2.89-1.951-5.14-1.307-2.7 0.772-4.16 2.844-3.55 5.007 0.64 2.21 2.81 3.107 5.56 2.319zm5.49-1.491 7.04-0.262-0.07-1.959-4.48 0.167-0.19-5.138-2.56 0.1zm10.67 0.313 0.9-7.047-2.55-0.322-0.89 7.047zm5.44 1.586c2.25 0.721 4.17 0.339 5.21-1.048l-2.31-1.353a1.762 1.762 0 0 1 -2.24 0.607 1.9 1.9 0 1 1 1.16 -3.61 1.745 1.745 0 0 1 1.45 1.8l2.68 0.333c0.05-1.718-1.32-3.227-3.55-3.942-2.67-0.859-5.04 0.05-5.73 2.193-0.7 2.19 0.6 4.143 3.33 5.02zm10.39 4.834 2.47 1.562-0.37-5.345 0.22-6e-3 3.86-0.7-2.58-1.638-4.11 0.771 1.52-2.408-2.16-1.37-3.8 6 2.17 1.37 0.94-1.5 1.59-0.312zm14.82 4.562-5.27-6.05-1.47 1.281 1.79 2.059-3.88 3.384 1.67 1.924 3.89-3.384 1.8 2.067zm-3.18 9.175c1.35 2.61 3.52 3.6 5.59 2.526s2.51-3.4 1.16-6.015-3.51-3.606-5.58-2.536-2.52 3.405-1.17 6.025zm1.66-0.854a1.949 1.949 0 1 1 2.69 0.983 1.913 1.913 0 0 1 -2.69 -0.983zm3.61 9.346-1.57 0.2 1.02 7.98 1.67-0.214-0.59-4.639 4.36 4 1.58-0.2-0.99-7.7-1.67 0.214 0.56 4.381zm-1.26 13.179c-0.33 2.922 0.92 4.947 3.24 5.21s3.99-1.43 4.32-4.352-0.92-4.956-3.23-5.219-3.99 1.429-4.33 4.361zm1.85 0.21a1.954 1.954 0 1 1 1.69 2.316 1.922 1.922 0 0 1 -1.69 -2.316zm-4.4 9.734c-1.11 2.721-0.45 5.007 1.71 5.887s4.22-0.3 5.33-3.018 0.46-5.017-1.7-5.9-4.22 0.3-5.34 3.031zm1.73 0.7a1.95 1.95 0 1 1 1 2.686 1.909 1.909 0 0 1 -1 -2.684zm-3.78 4.793-1.39 1.727 3.04 2.446a7.8 7.8 0 0 0 1.23 0.863l-0.03 0.031c-0.32-0.143-0.84-0.357-1.39-0.547l-4-1.362-1.49 1.851 2.13 3.7c0.26 0.448 0.64 1.054 0.8 1.257l-0.03 0.039a9.336 9.336 0 0 0 -1.08 -1.05l-3.04-2.446-1.46 1.82 5.52 4.454 2.44-3.026-2.03-3.2a4.3 4.3 0 0 0 -0.54 -0.773l0.01-0.015a4.358 4.358 0 0 0 0.86 0.356l3.6 1.276 2.38-2.948zm-11.79 17.9 1.24 1.05 0.63-1.466 0.32 1.435 1.53-0.965-1.17-0.9 1.6 0.067-0.41-1.578-1.33 0.792 0.64-1.523-1.71-0.061 0.3 1.62-1.32-0.975-0.69 1.57 1.65 0.084zm-11.09-1.226c-2.27 0.649-3.66 2.032-3.75 3.765l2.68-0.163a1.734 1.734 0 0 1 1.51 -1.744 1.834 1.834 0 0 1 2.53 1.241 1.855 1.855 0 0 1 -1.48 2.4 1.756 1.756 0 0 1 -2.21 -0.69l-2.41 1.209c0.92 1.454 2.89 1.95 5.14 1.307 2.7-0.773 4.16-2.845 3.55-5.007-0.64-2.204-2.81-3.101-5.56-2.312zm-5.49 1.477-7.04 0.252 0.07 1.96 4.48-0.16 0.18 5.139 2.56-0.091zm-10.67-0.337-0.9 7.04 2.53 0.327 0.91-7.04zm-5.44-1.6c-2.24-0.725-4.16-0.348-5.21 1.037l2.32 1.358a1.744 1.744 0 0 1 2.23 -0.6 1.9 1.9 0 1 1 -1.16 3.605 1.749 1.749 0 0 1 -1.45 -1.8l-2.67-0.339c-0.06 1.717 1.31 3.228 3.53 3.948 2.67 0.864 5.05-0.04 5.74-2.18 0.71-2.186-0.6-4.138-3.33-5.021zm-10.38-4.858-2.46-1.568 0.36 5.347h-0.22l-3.87 0.692 2.58 1.643 4.12-0.761-1.53 2.4 2.16 1.375 3.81-5.99-2.16-1.375-0.95 1.493-1.59 0.309zm-14.8-4.608 5.25 6.068 1.47-1.276-1.78-2.066 3.89-3.371-1.67-1.929-3.89 3.371-1.8-2.074zm3.19-9.155c-1.35-2.612-3.51-3.6-5.58-2.534s-2.52 3.4-1.17 6.012 3.51 3.61 5.58 2.543 2.52-3.392 1.17-6.013zm-1.65 0.851a1.952 1.952 0 1 1 -2.69 -0.986 1.921 1.921 0 0 1 2.69 0.999zm-3.6-9.361 1.58-0.2-1-7.986-1.67 0.209 0.58 4.643-4.35-4.012-1.58 0.2 0.96 7.709 1.68-0.209-0.55-4.385zm1.3-13.17c0.34-2.92-0.9-4.948-3.22-5.218s-3.99 1.415-4.33 4.335 0.9 4.958 3.21 5.229 4-1.408 4.34-4.338zm-1.85-0.216a1.95 1.95 0 1 1 -1.68 -2.321 1.915 1.915 0 0 1 1.68 2.329zm4.42-9.721c1.11-2.719 0.46-5.006-1.69-5.89s-4.23 0.288-5.34 3.006-0.47 5.015 1.68 5.9 4.23-0.281 5.35-3.008zm-1.72-0.706a1.952 1.952 0 1 1 -1 -2.687 1.918 1.918 0 0 1 1 2.695zm3.79-4.812 1.4-1.725-3.03-2.459a7.766 7.766 0 0 0 -1.23 -0.868l0.03-0.031c0.32 0.144 0.84 0.36 1.39 0.552l4 1.376 1.5-1.85-2.13-3.712a13.444 13.444 0 0 0 -0.79 -1.263l0.03-0.038a9.387 9.387 0 0 0 1.08 1.054l3.03 2.46 1.48-1.819-5.52-4.477-2.45 3.023 2.02 3.212a4.333 4.333 0 0 0 0.54 0.776l-0.01 0.015a4.351 4.351 0 0 0 -0.86 -0.359l-3.6-1.289-2.39 2.945zm11.82-17.85-1.24-1.052-0.63 1.464-0.31-1.434-1.54 0.962 1.17 0.906-1.6-0.069 0.4 1.578 1.34-0.79-0.64 1.522 1.7 0.063-0.29-1.62 1.32 0.976 0.69-1.567-1.65-0.087z" data-name="Click to zoom * click to zoom *"/>
</svg>
